<?xml version="1.0" encoding="UTF-8" standalone="no"?>
<svg
   version="1.1"
   width="500"
   height="250"
   style="clip-rule:evenodd;fill-rule:evenodd;image-rendering:optimizeQuality;shape-rendering:geometricPrecision;text-rendering:geometricPrecision"
   id="svg67"
   sodipodi:docname="ADI_full.svg"
   xmlns:inkscape="http://www.inkscape.org/namespaces/inkscape"
   xmlns:sodipodi="http://sodipodi.sourceforge.net/DTD/sodipodi-0.dtd"
   xmlns="http://www.w3.org/2000/svg"
   xmlns:svg="http://www.w3.org/2000/svg">
  <sodipodi:namedview
     id="namedview1"
     pagecolor="#ffffff"
     bordercolor="#000000"
     borderopacity="0.25"
     inkscape:showpageshadow="2"
     inkscape:pageopacity="0.0"
     inkscape:pagecheckerboard="0"
     inkscape:deskcolor="#d1d1d1">
    <inkscape:page
       x="0"
       y="0"
       width="500"
       height="250"
       id="page2"
       margin="0"
       bleed="0" />
  </sodipodi:namedview>
  <defs
     id="defs67" />
  <g
     id="g10"
     transform="matrix(0.87931433,0,0,1.1766508,-406.65816,-402.83042)">
    <path
       id="path10"
       style="opacity:1;fill:#2b1f3e;fill-opacity:1"
       d="m 821.5,377.5 c 23.827,-0.674 41.993,8.993 54.5,29 2.764,5.723 4.597,11.723 5.5,18 1.688,14.747 1.188,29.413 -1.5,44 -6.012,22.678 -20.512,36.511 -43.5,41.5 -14.622,1.394 -29.289,1.894 -44,1.5 -4.805,-0.987 -9.805,-1.321 -15,-1 0,-44.333 0,-88.667 0,-133 14.667,0 29.333,0 44,0 z m 8,-17 c 24.543,-0.318 46.543,6.848 66,21.5 18.074,15.655 26.741,35.489 26,59.5 0.029,43.85 -20.971,71.35 -63,82.5 -7.3,1.219 -14.633,2.219 -22,3 -33.332,0.5 -66.665,0.667 -100,0.5 2.482,-26.087 3.482,-52.254 3,-78.5 -0.167,-16.833 -0.333,-33.667 -0.5,-50.5 -1.498,-11.976 -2.664,-23.976 -3.5,-36 30.982,-1.993 62.316,-2.659 94,-2 z m 0,0 c -31.684,-0.659 -63.018,0.007 -94,2 -0.904,-0.709 -1.237,-1.709 -1,-3 31.838,-0.332 63.504,0.002 95,1 z" />
  </g>
  <g
     id="g11"
     transform="matrix(0.87860197,0,0,1,-419.23275,-309.63604)">
    <path
       style="opacity:1"
       fill="#c51f4d"
       d="m 714.5,420.5 c -0.432,-1.21 -1.099,-2.21 -2,-3 -0.338,-6.483 2.662,-9.316 9,-8.5 4.392,2.963 5.059,6.63 2,11 -2.954,1.719 -5.954,1.885 -9,0.5 z"
       id="path11" />
  </g>
  <g
     id="g13"
     style="fill:#c51f4d;fill-opacity:1"
     transform="matrix(0.87860197,0,0,1,-419.23275,-309.63604)">
    <path
       style="opacity:1;fill:#c51f4d;fill-opacity:1"
       fill="#9e60a8"
       d="m 712.5,417.5 c 0.901,0.79 1.568,1.79 2,3 -1.109,0.057 -2.109,0.39 -3,1 -2.107,-0.968 -4.441,-1.302 -7,-1 2.977,-0.402 5.643,-1.402 8,-3 z"
       id="path13" />
  </g>
  <g
     id="g19"
     transform="matrix(0.79711872,0,0,1,-361.25742,-309.63604)">
    <path
       id="path19"
       style="opacity:1;fill:#500988;fill-opacity:1"
       d="m 668.5,452.5 h 18 c 6.614,24.626 13.614,49.126 21,73.5 -13.663,0.5 -27.329,0.667 -41,0.5 -6.393,-23.178 -13.393,-46.178 -21,-69 7.755,-1.935 15.422,-3.601 23,-5 z m 36,-32 c 2.559,-0.302 4.893,0.032 7,1 -9.862,5.095 -19.529,10.429 -29,16 -3.18,1.755 -6.18,3.755 -9,6 -11.484,0.858 -22.817,2.692 -34,5.5 -41.948,15.14 -80.948,35.807 -117,62 -5.888,5.061 -11.555,10.228 -17,15.5 -14.177,0.329 -28.177,-0.004 -42,-1 50.088,-64.6 100.421,-129.1 151,-193.5 12.329,-0.5 24.662,-0.667 37,-0.5 8.686,27.389 16.352,55.056 23,83 -13.463,1.728 -26.797,3.895 -40,6.5 -5.297,-16.225 -10.797,-32.391 -16.5,-48.5 -21.508,31.683 -43.508,63.017 -66,94 -0.667,0.667 -0.667,1.333 0,2 19.79709,-11.61832 78.59343,-42.50851 152.5,-48 z" />
  </g>
  <g
     id="g20"
     style="fill:#c51f4d;fill-opacity:1"
     transform="matrix(0.87860197,0,0,1,-419.23275,-309.63604)">
    <path
       style="opacity:1;fill:#c51f4d;fill-opacity:1"
       fill="#ba1a48"
       d="m 682.5,437.5 c 5.478,-0.131 10.811,0.702 16,2.5 7.935,3.547 15.435,7.714 22.5,12.5 5.04,7.891 4.54,15.391 -1.5,22.5 -11.612,5.195 -18.279,1.529 -20,-11 0.124,-3.586 1.124,-6.919 3,-10 -0.939,-1.944 -2.273,-3.611 -4,-5 -7.908,-3.677 -16.241,-5.51 -25,-5.5 2.82,-2.245 5.82,-4.245 9,-6 z"
       id="path20" />
  </g>
  <rect
     style="fill:#2b1f3e;fill-opacity:1;stroke-width:1.11778"
     id="rect74"
     width="33"
     height="194"
     x="444.5"
     y="23.5" />
</svg>
