<?xml version="1.0" encoding="UTF-8" standalone="no"?>
<svg
   version="1.1"
   width="249"
   height="247"
   style="clip-rule:evenodd;fill-rule:evenodd;image-rendering:optimizeQuality;shape-rendering:geometricPrecision;text-rendering:geometricPrecision"
   id="svg67"
   xmlns="http://www.w3.org/2000/svg"
   xmlns:svg="http://www.w3.org/2000/svg">
  <defs
     id="defs67" />
  <ellipse
     style="clip-rule:evenodd;fill:#fff3ff;fill-opacity:1;fill-rule:evenodd;stroke-width:0.980237;image-rendering:optimizeQuality;shape-rendering:geometricPrecision;text-rendering:geometricPrecision"
     id="path75"
     cx="124.5"
     cy="123.5"
     rx="124.5"
     ry="123.5" />
  <g
     id="g11"
     transform="matrix(0.87860197,0,0,1,-411.23275,-314.63604)">
    <path
       style="opacity:1"
       fill="#c51f4d"
       d="m 714.5,420.5 c -0.432,-1.21 -1.099,-2.21 -2,-3 -0.338,-6.483 2.662,-9.316 9,-8.5 4.392,2.963 5.059,6.63 2,11 -2.954,1.719 -5.954,1.885 -9,0.5 z"
       id="path11" />
  </g>
  <g
     id="g13"
     style="fill:#c51f4d;fill-opacity:1"
     transform="matrix(0.87860197,0,0,1,-411.23275,-314.63604)">
    <path
       style="opacity:1;fill:#c51f4d;fill-opacity:1"
       fill="#9e60a8"
       d="m 712.5,417.5 c 0.901,0.79 1.568,1.79 2,3 -1.109,0.057 -2.109,0.39 -3,1 -2.107,-0.968 -4.441,-1.302 -7,-1 2.977,-0.402 5.643,-1.402 8,-3 z"
       id="path13" />
  </g>
  <g
     id="g19"
     transform="matrix(0.79711872,0,0,1,-353.25742,-314.63604)">
    <path
       id="path19"
       style="opacity:1;fill:#500988;fill-opacity:1"
       d="m 668.5,452.5 h 18 c 6.614,24.626 13.614,49.126 21,73.5 -13.663,0.5 -27.329,0.667 -41,0.5 -6.393,-23.178 -13.393,-46.178 -21,-69 7.755,-1.935 15.422,-3.601 23,-5 z m 36,-32 c 2.559,-0.302 4.893,0.032 7,1 -9.862,5.095 -19.529,10.429 -29,16 -3.18,1.755 -6.18,3.755 -9,6 -11.484,0.858 -22.817,2.692 -34,5.5 -41.948,15.14 -80.948,35.807 -117,62 -5.888,5.061 -11.555,10.228 -17,15.5 -14.177,0.329 -28.177,-0.004 -42,-1 50.088,-64.6 100.421,-129.1 151,-193.5 12.329,-0.5 24.662,-0.667 37,-0.5 8.686,27.389 16.352,55.056 23,83 -13.463,1.728 -26.797,3.895 -40,6.5 -5.297,-16.225 -10.797,-32.391 -16.5,-48.5 -21.508,31.683 -43.508,63.017 -66,94 -0.667,0.667 -0.667,1.333 0,2 19.79709,-11.61832 78.59343,-42.50851 152.5,-48 z" />
  </g>
  <g
     id="g20"
     style="fill:#c51f4d;fill-opacity:1"
     transform="matrix(0.87860197,0,0,1,-411.23275,-314.63604)">
    <path
       style="opacity:1;fill:#c51f4d;fill-opacity:1"
       fill="#ba1a48"
       d="m 682.5,437.5 c 5.478,-0.131 10.811,0.702 16,2.5 7.935,3.547 15.435,7.714 22.5,12.5 5.04,7.891 4.54,15.391 -1.5,22.5 -11.612,5.195 -18.279,1.529 -20,-11 0.124,-3.586 1.124,-6.919 3,-10 -0.939,-1.944 -2.273,-3.611 -4,-5 -7.908,-3.677 -16.241,-5.51 -25,-5.5 2.82,-2.245 5.82,-4.245 9,-6 z"
       id="path20" />
  </g>
</svg>
